<?xml version="1.0" encoding="UTF-8" standalone="no"?>
<!-- Created with Inkscape (http://www.inkscape.org/) -->

<svg
   width="210mm"
   height="297mm"
   viewBox="0 0 210 297"
   version="1.1"
   id="svg5"
   inkscape:version="1.2.2 (732a01da63, 2022-12-09)"
   sodipodi:docname="BerryAcryl.svg"
   xmlns:inkscape="http://www.inkscape.org/namespaces/inkscape"
   xmlns:sodipodi="http://sodipodi.sourceforge.net/DTD/sodipodi-0.dtd"
   xmlns="http://www.w3.org/2000/svg"
   xmlns:svg="http://www.w3.org/2000/svg">
  <sodipodi:namedview
     id="namedview7"
     pagecolor="#ffffff"
     bordercolor="#000000"
     borderopacity="0.25"
     inkscape:showpageshadow="2"
     inkscape:pageopacity="0.0"
     inkscape:pagecheckerboard="0"
     inkscape:deskcolor="#d1d1d1"
     inkscape:document-units="mm"
     showgrid="false"
     inkscape:zoom="2"
     inkscape:cx="236.25"
     inkscape:cy="160.25"
     inkscape:window-width="1920"
     inkscape:window-height="991"
     inkscape:window-x="-9"
     inkscape:window-y="-9"
     inkscape:window-maximized="1"
     inkscape:current-layer="layer1"
     inkscape:lockguides="false">
    <inkscape:grid
       type="xygrid"
       id="grid1253" />
  </sodipodi:namedview>
  <defs
     id="defs2" />
  <g
     inkscape:label="Ebene 1"
     inkscape:groupmode="layer"
     id="layer1">
    <rect
       style="display:inline;fill:none;stroke:#000000;stroke-width:0.0405193"
       id="rect234-1-7"
       width="95.059471"
       height="66.159698"
       x="7.5415864"
       y="8.3465796"
       rx="3.0664346"
       ry="3.1012359" />
    <path
       id="path600-9-8"
       style="fill:none;fill-opacity:0;stroke:#000000;stroke-width:0.0405193;stroke-dasharray:none;stroke-opacity:1"
       d="M 54.767716 13.591418 L 54.767716 20.099548 L 60.410783 23.394438 L 66.053333 20.099548 L 66.053333 16.591235 C 66.053333 14.929237 64.715514 13.591418 63.053516 13.591418 L 54.767716 13.591418 z " />
    <path
       id="path600-0-7-9"
       style="fill:none;fill-opacity:0;stroke:#000000;stroke-width:0.0405193;stroke-dasharray:none;stroke-opacity:1"
       d="m 26.719898,13.591284 v 6.508293 l 5.643108,3.295021 5.642505,-3.295021 v -6.508293 z" />
    <path
       id="path600-9-0"
       style="fill:none;fill-opacity:0;stroke:#000000;stroke-width:0.0405193;stroke-dasharray:none;stroke-opacity:1"
       d="m 15.225717,13.645966 c -1.338044,0.248309 -2.371159,1.351666 -2.529856,2.734371 v 3.719485 l 5.643071,3.294961 5.643071,-3.294961 v -6.453856 z" />
    <path
       id="path600-0-7-2"
       style="fill:none;fill-opacity:0;stroke:#000000;stroke-width:0.0405193;stroke-dasharray:none;stroke-opacity:1"
       d="m 40.743519,13.591284 v 6.508293 l 5.643108,3.295021 5.643108,-3.295021 v -6.508293 z" />
    <path
       sodipodi:type="star"
       style="fill:none;fill-opacity:0;stroke:#000000;stroke-width:0.0539212;stroke-dasharray:none;stroke-opacity:1"
       id="path600-9-8-5"
       inkscape:flatsided="true"
       sodipodi:sides="6"
       sodipodi:cx="17.924789"
       sodipodi:cy="23.011555"
       sodipodi:r1="8.7201681"
       sodipodi:r2="7.551887"
       sodipodi:arg1="0"
       sodipodi:arg2="0.52359878"
       inkscape:rounded="0"
       inkscape:randomized="0"
       d="m 26.644958,23.011555 -4.360085,7.551887 h -8.720168 l -4.3600837,-7.551887 4.3600837,-7.551887 8.720168,0 z"
       transform="matrix(0,-0.75571147,0.74722121,0,36.203998,42.67528)" />
    <path
       id="path600-9-8-6-5"
       style="fill:none;fill-opacity:0;stroke:#000000;stroke-width:0.0539212;stroke-dasharray:none;stroke-opacity:1"
       d="M 25.586665 21.178955 L 22.284538 15.459577 L 13.564572 15.459577 L 10.262445 21.178955 L 25.586665 21.178955 z "
       transform="matrix(0,-0.75571147,0.74722121,0,50.227968,42.67528)" />
    <path
       sodipodi:type="star"
       style="fill:none;fill-opacity:0;stroke:#000000;stroke-width:0.0539212;stroke-dasharray:none;stroke-opacity:1"
       id="path600-0-7-9-2"
       inkscape:flatsided="true"
       sodipodi:sides="6"
       sodipodi:cx="17.924789"
       sodipodi:cy="23.011555"
       sodipodi:r1="8.7201681"
       sodipodi:r2="7.551887"
       sodipodi:arg1="0"
       sodipodi:arg2="0.52359878"
       inkscape:rounded="0"
       inkscape:randomized="0"
       d="m 26.644958,23.011555 -4.360085,7.551887 h -8.720168 l -4.3600837,-7.551887 4.3600837,-7.551887 8.720168,0 z"
       transform="matrix(0,-0.75571147,0.74722121,0,8.1560571,42.67528)" />
    <path
       id="path600-9-0-5"
       style="fill:none;fill-opacity:0;stroke:#000000;stroke-width:0.0405193;stroke-dasharray:none;stroke-opacity:1"
       d="m 12.672753,23.325049 v 11.608528 l 4.296724,-2.509243 v -6.590042 z" />
    <path
       sodipodi:type="star"
       style="fill:none;fill-opacity:0;stroke:#000000;stroke-width:0.0539212;stroke-dasharray:none;stroke-opacity:1"
       id="path600-0-7-2-3"
       inkscape:flatsided="true"
       sodipodi:sides="6"
       sodipodi:cx="17.924789"
       sodipodi:cy="23.011555"
       sodipodi:r1="8.7201681"
       sodipodi:r2="7.551887"
       sodipodi:arg1="0"
       sodipodi:arg2="0.52359878"
       inkscape:rounded="0"
       inkscape:randomized="0"
       d="m 26.644958,23.011555 -4.360085,7.551887 h -8.720168 l -4.3600837,-7.551887 4.3600837,-7.551887 8.720168,0 z"
       transform="matrix(0,-0.75571147,0.74722121,0,22.180029,42.67528)" />
    <path
       sodipodi:type="star"
       style="fill:none;fill-opacity:0;stroke:#000000;stroke-width:0.0539212;stroke-dasharray:none;stroke-opacity:1"
       id="path600-9-8-4"
       inkscape:flatsided="true"
       sodipodi:sides="6"
       sodipodi:cx="17.924789"
       sodipodi:cy="23.011555"
       sodipodi:r1="8.7201681"
       sodipodi:r2="7.551887"
       sodipodi:arg1="0"
       sodipodi:arg2="0.52359878"
       inkscape:rounded="0"
       inkscape:randomized="0"
       d="m 26.644958,23.011555 -4.360085,7.551887 h -8.720168 l -4.3600837,-7.551887 4.3600837,-7.551887 8.720168,0 z"
       transform="matrix(0,-0.75571147,0.74722121,0,43.215984,55.000145)" />
    <path
       sodipodi:type="star"
       style="fill:none;fill-opacity:0;stroke:#000000;stroke-width:0.0539212;stroke-dasharray:none;stroke-opacity:1"
       id="path600-0-7-9-9"
       inkscape:flatsided="true"
       sodipodi:sides="6"
       sodipodi:cx="17.924789"
       sodipodi:cy="23.011555"
       sodipodi:r1="8.7201681"
       sodipodi:r2="7.551887"
       sodipodi:arg1="0"
       sodipodi:arg2="0.52359878"
       inkscape:rounded="0"
       inkscape:randomized="0"
       d="m 26.644958,23.011555 -4.360085,7.551887 h -8.720168 l -4.3600837,-7.551887 4.3600837,-7.551887 8.720168,0 z"
       transform="matrix(0,-0.75571147,0.74722121,0,15.168043,55.000145)" />
    <path
       sodipodi:type="star"
       style="fill:none;fill-opacity:0;stroke:#000000;stroke-width:0.0539212;stroke-dasharray:none;stroke-opacity:1"
       id="path600-9-0-1"
       inkscape:flatsided="true"
       sodipodi:sides="6"
       sodipodi:cx="17.924789"
       sodipodi:cy="23.011555"
       sodipodi:r1="8.7201681"
       sodipodi:r2="7.551887"
       sodipodi:arg1="0"
       sodipodi:arg2="0.52359878"
       inkscape:rounded="0"
       inkscape:randomized="0"
       d="m 26.644958,23.011555 -4.360085,7.551887 h -8.720168 l -4.3600837,-7.551887 4.3600837,-7.551887 8.720168,0 z"
       transform="matrix(0,-0.75571147,0.74722121,0,1.1440733,55.000145)" />
    <path
       sodipodi:type="star"
       style="fill:none;fill-opacity:0;stroke:#000000;stroke-width:0.0539212;stroke-dasharray:none;stroke-opacity:1"
       id="path600-0-7-2-4"
       inkscape:flatsided="true"
       sodipodi:sides="6"
       sodipodi:cx="17.924789"
       sodipodi:cy="23.011555"
       sodipodi:r1="8.7201681"
       sodipodi:r2="7.551887"
       sodipodi:arg1="0"
       sodipodi:arg2="0.52359878"
       inkscape:rounded="0"
       inkscape:randomized="0"
       d="m 26.644958,23.011555 -4.360085,7.551887 h -8.720168 l -4.3600837,-7.551887 4.3600837,-7.551887 8.720168,0 z"
       transform="matrix(0,-0.75571147,0.74722121,0,29.192014,55.000145)" />
    <path
       sodipodi:type="star"
       style="fill:none;fill-opacity:0;stroke:#000000;stroke-width:0.0539212;stroke-dasharray:none;stroke-opacity:1"
       id="path600-9-8-5-8"
       inkscape:flatsided="true"
       sodipodi:sides="6"
       sodipodi:cx="17.924789"
       sodipodi:cy="23.011555"
       sodipodi:r1="8.7201681"
       sodipodi:r2="7.551887"
       sodipodi:arg1="0"
       sodipodi:arg2="0.52359878"
       inkscape:rounded="0"
       inkscape:randomized="0"
       d="m 26.644958,23.011555 -4.360085,7.551887 h -8.720168 l -4.3600837,-7.551887 4.3600837,-7.551887 8.720168,0 z"
       transform="matrix(0,-0.75571147,0.74722121,0,36.203998,67.325007)" />
    <path
       id="path600-9-8-6-5-0"
       style="fill:none;fill-opacity:0;stroke:#000000;stroke-width:0.0539212;stroke-dasharray:none;stroke-opacity:1"
       d="M 25.58744 21.179647 L 22.284629 15.459577 L 13.564663 15.459577 L 10.262536 21.179647 L 25.58744 21.179647 z "
       transform="matrix(0,-0.75571147,0.74722121,0,50.227968,67.325007)" />
    <path
       sodipodi:type="star"
       style="fill:none;fill-opacity:0;stroke:#000000;stroke-width:0.0539212;stroke-dasharray:none;stroke-opacity:1"
       id="path600-0-7-9-2-4"
       inkscape:flatsided="true"
       sodipodi:sides="6"
       sodipodi:cx="17.924789"
       sodipodi:cy="23.011555"
       sodipodi:r1="8.7201681"
       sodipodi:r2="7.551887"
       sodipodi:arg1="0"
       sodipodi:arg2="0.52359878"
       inkscape:rounded="0"
       inkscape:randomized="0"
       d="m 26.644958,23.011555 -4.360085,7.551887 h -8.720168 l -4.3600837,-7.551887 4.3600837,-7.551887 8.720168,0 z"
       transform="matrix(0,-0.75571147,0.74722121,0,8.1560571,67.325007)" />
    <path
       id="path600-9-0-5-0"
       style="fill:none;fill-opacity:0;stroke:#000000;stroke-width:0.0405193;stroke-dasharray:none;stroke-opacity:1"
       d="m 12.695675,47.988597 v 11.581075 l 4.273802,-2.49582 v -6.590043 z" />
    <path
       sodipodi:type="star"
       style="fill:none;fill-opacity:0;stroke:#000000;stroke-width:0.0539212;stroke-dasharray:none;stroke-opacity:1"
       id="path600-0-7-2-3-1"
       inkscape:flatsided="true"
       sodipodi:sides="6"
       sodipodi:cx="17.924789"
       sodipodi:cy="23.011555"
       sodipodi:r1="8.7201681"
       sodipodi:r2="7.551887"
       sodipodi:arg1="0"
       sodipodi:arg2="0.52359878"
       inkscape:rounded="0"
       inkscape:randomized="0"
       d="m 26.644958,23.011555 -4.360085,7.551887 h -8.720168 l -4.3600837,-7.551887 4.3600837,-7.551887 8.720168,0 z"
       transform="matrix(0,-0.75571147,0.74722121,0,22.180029,67.325007)" />
    <path
       id="path600-9-8-4-2"
       style="fill:none;fill-opacity:0;stroke:#000000;stroke-width:0.0405193;stroke-dasharray:none;stroke-opacity:1"
       d="M 60.410783 59.503345 L 54.767716 62.798234 L 54.767716 69.316182 L 63.053516 69.316182 C 64.715514 69.316182 66.053333 67.978364 66.053333 66.316366 L 66.053333 62.798234 L 60.410783 59.503345 z " />
    <path
       id="path600-0-7-9-9-6"
       style="fill:none;fill-opacity:0;stroke:#000000;stroke-width:0.0405193;stroke-dasharray:none;stroke-opacity:1"
       d="m 32.363006,59.503174 -5.643108,3.295021 v 6.518663 h 11.285613 v -6.518663 z" />
    <path
       id="path600-9-0-1-9"
       style="fill:none;fill-opacity:0;stroke:#000000;stroke-width:0.0405193;stroke-dasharray:none;stroke-opacity:1"
       d="m 18.338932,59.503289 -5.643071,3.294962 v 3.729825 c 0.180706,1.574121 1.494348,2.788798 3.100837,2.788798 h 8.185305 v -6.518623 z" />
    <path
       id="path600-0-7-2-4-7"
       style="fill:none;fill-opacity:0;stroke:#000000;stroke-width:0.0405193;stroke-dasharray:none;stroke-opacity:1"
       d="m 46.386627,59.503174 -5.643108,3.295021 v 6.518054 h 11.286216 v -6.518054 z" />
    <text
       xml:space="preserve"
       style="font-size:3.175px;fill:#000000;stroke-width:0.264583"
       x="121.17917"
       y="21.828125"
       id="text255"><tspan
         sodipodi:role="line"
         id="tspan253"
         style="stroke-width:0.264583"
         x="121.17917"
         y="21.828125">Original Höhe: 65.2</tspan><tspan
         sodipodi:role="line"
         style="stroke-width:0.264583"
         x="121.17917"
         y="25.796875"
         id="tspan307">Original Breite: 94.1</tspan></text>
  </g>
</svg>
